<svg width="24" height="24" viewBox="0 0 24 24" fill="none" xmlns="http://www.w3.org/2000/svg">
<path d="M21.4531 17.4132C21.8282 17.7882 22.0389 18.2968 22.0391 18.8272V20.9992C22.0391 21.2644 21.9337 21.5188 21.7462 21.7063C21.5586 21.8938 21.3043 21.9992 21.0391 21.9992H18.0391C17.7738 21.9992 17.5195 21.8938 17.332 21.7063C17.1444 21.5188 17.0391 21.2644 17.0391 20.9992V19.9992C17.0391 19.734 16.9337 19.4796 16.7462 19.2921C16.5586 19.1045 16.3043 18.9992 16.0391 18.9992H15.0391C14.7738 18.9992 14.5195 18.8938 14.332 18.7063C14.1444 18.5188 14.0391 18.2644 14.0391 17.9992V16.9992C14.0391 16.734 13.9337 16.4796 13.7462 16.2921C13.5586 16.1045 13.3043 15.9992 13.0391 15.9992H12.8671C12.3367 15.9991 11.828 15.7883 11.4531 15.4132L10.6391 14.5992C9.24923 15.0833 7.73623 15.0815 6.34758 14.5939C4.95893 14.1064 3.77685 13.162 2.9947 11.9153C2.21256 10.6686 1.87666 9.19336 2.04195 7.73092C2.20725 6.26849 2.86395 4.90544 3.90463 3.86475C4.94531 2.82407 6.30836 2.16737 7.7708 2.00207C9.23323 1.83678 10.7085 2.17268 11.9552 2.95482C13.2019 3.73697 14.1463 4.91906 14.6338 6.3077C15.1214 7.69635 15.1232 9.20935 14.6391 10.5992L21.4531 17.4132Z" stroke="black" stroke-width="2" stroke-linecap="round" stroke-linejoin="round"/>
<path d="M7.53906 8C7.26292 8 7.03906 7.77614 7.03906 7.5C7.03906 7.22386 7.26292 7 7.53906 7C7.8152 7 8.03906 7.22386 8.03906 7.5C8.03906 7.77614 7.8152 8 7.53906 8Z" fill="black" stroke="black" stroke-width="2" stroke-linecap="round" stroke-linejoin="round"/>
</svg>
